<?xml version="1.0" encoding="utf-8"?>
<!-- Generator: Adobe Illustrator 22.0.0, SVG Export Plug-In . SVG Version: 6.00 Build 0)  -->
<svg version="1.1" id="Layer_1" xmlns="http://www.w3.org/2000/svg" xmlns:xlink="http://www.w3.org/1999/xlink" x="0px" y="0px"
	 viewBox="0 0 595.1 584" style="enable-background:new 0 0 595.1 584;" xml:space="preserve">
<style type="text/css">
	.st0{fill-rule:evenodd;clip-rule:evenodd;fill:#FFA226;}
	.st1{fill:#FF8B00;}
	.st2{clip-path:url(#SVGID_2_);fill:#FF9700;}
	.st3{clip-path:url(#SVGID_2_);fill:#FF8B00;}
	.st4{clip-path:url(#SVGID_4_);fill:#FF9700;}
	.st5{clip-path:url(#SVGID_4_);fill:#FF8B00;}
	.st6{fill:#FF9700;}
	.st7{fill:#FF9200;}
</style>
<circle class="st0" cx="295.6" cy="292.1" r="280.5"/>
<g>
	<g>
		<path class="st1" d="M534.8,147.1C462.2,21.3,301.3-21.8,175.5,50.9c-23.8,13.8-44.7,30.7-62.3,49.9c11.2-9.2,23.4-17.7,36.4-25.2
			c125.8-72.1,286.6-29.3,359.2,95.5C571,278,548.4,410.2,461.7,491.3C569.4,413.3,602.8,264.8,534.8,147.1z"/>
	</g>
</g>
<g>
	<defs>
		<path id="SVGID_1_" d="M347.6,292.1l134-58c0,0,29,76,0,102S367.6,324.1,347.6,292.1z"/>
	</defs>
	<clipPath id="SVGID_2_">
		<use xlink:href="#SVGID_1_"  style="overflow:visible;"/>
	</clipPath>
	<path class="st2" d="M347.6,292.1l134-58c0,0,29,76,0,102S367.6,324.1,347.6,292.1z"/>
	<path class="st3" d="M479.1,230.6c0,0,32,68-10,93s-118-26-127-34L479.1,230.6z"/>
</g>
<g>
	<defs>
		<path id="SVGID_3_" d="M244.5,292.1l-134-58c0,0-29,76,0,102S224.5,324.1,244.5,292.1z"/>
	</defs>
	<clipPath id="SVGID_4_">
		<use xlink:href="#SVGID_3_"  style="overflow:visible;"/>
	</clipPath>
	<path class="st4" d="M244.5,292.1l-134-58c0,0-29,76,0,102S224.5,324.1,244.5,292.1z"/>
	<path class="st5" d="M113,230.6c0,0-32,68,10,93s118-26,127-34L113,230.6z"/>
</g>
<path class="st1" d="M254.3,450.9l24.8,43.7l22.8-27.7l24,27.4l25.5-43.6l44,27.6l74.9-77.3l7.4-9.9l-65.5,38.5l-23-34l-34,36
	l-32-32l-21,28l-22-30l-30,34l-35-37l-19,35l-69.5-38.5l2.4,3.3c22.6,24.1,80.1,84.2,80.1,84.2L254.3,450.9z"/>
<g>
	<polygon class="st6" points="279.1,494.6 254.3,450.9 254.1,465.5 254.6,465.1 277.7,506.4 279.3,494.4 	"/>
	<polygon class="st7" points="254.3,450.9 209.3,478.5 208.9,501.9 254.1,465.5 254.3,450.9 	"/>
	<path class="st6" d="M209.1,478.6c0,0-57.5-60.1-80.1-84.2l79.6,107.7l0.3-0.2l0.4-23.4L209.1,478.6z"/>
	<polygon class="st7" points="279.3,494.4 277.7,506.4 278.6,508.1 301.6,479.1 301.9,466.9 	"/>
	<polygon class="st7" points="351.4,450.8 325.9,494.3 325.9,494.3 324.7,509.9 352.6,464.1 353.3,464.7 351.4,450.8 	"/>
	<polygon class="st7" points="395.4,478.4 395.6,501.1 470.2,401 	"/>
	<polygon class="st6" points="395.4,478.4 351.4,450.8 353.3,464.7 395.6,501.1 395.4,478.4 	"/>
	<polygon class="st6" points="301.9,466.9 301.9,466.9 301.6,479.1 324.6,510.1 324.7,509.9 325.9,494.3 	"/>
</g>
</svg>
